<?xml version="1.0" encoding="UTF-8" standalone="no"?>
<!-- Created with Inkscape (http://www.inkscape.org/) -->

<svg
   version="1.1"
   id="svg2"
   width="1122.5197"
   height="793.70081"
   viewBox="0 0 1122.5197 793.70081"
   xmlns="http://www.w3.org/2000/svg"
   xmlns:svg="http://www.w3.org/2000/svg">
  <defs
     id="defs6" />
  <g
     id="g8"
     transform="matrix(1.3333333,0,0,-1.3333333,0,793.7008)">
    <g
       id="g10">
      <path
         d="m 502.6082,444.5912 h 16.9152 v -8.0648 H 502.6082 Z M 464.7733,275.2296 h 10.4947 v -8.0648 h -10.4978 l 0.003,8.0648 z m 12.7865,0 h 16.9152 v -8.0648 h -16.9152 z m 18.6308,0 h 16.9151 v -8.0648 h -16.9151 z m 19.0641,0 h 16.9152 v -8.0648 h -16.9152 z m 19.0638,0 h 16.9152 v -8.0648 h -16.9152 z m 19.0641,0 h 9.7665 v -8.0648 h -9.7665 z m -88.6059,9.7005 h 16.3914 v -8.0652 h -16.3945 l 0.003,8.0652 z m 18.6832,0 h 16.9152 v -8.0652 h -16.9152 z m 18.6307,0 h 16.9152 v -8.0652 h -16.9152 z m 19.0641,0 h 16.9152 v -8.0652 h -16.9152 z m 19.0639,0 h 16.9151 v -8.0652 h -16.9151 z m 19.0641,0 h 4.0172 l -0.0686,-8.0652 h -3.9486 z m -94.4986,19.2696 h 14.9366 v -8.0651 H 464.781 l 0.003,8.0651 z m 17.2284,0 h 16.9152 v -8.0651 h -16.9152 z m 18.6307,0 h 16.9152 v -8.0651 h -16.9152 z m 19.0641,0 h 16.9152 v -8.0651 h -16.9152 z m 19.0639,0 h 16.9152 v -8.0651 h -16.9152 z m 19.0641,0 h 5.6282 l -0.0686,-8.0651 h -5.5596 z m -93.0549,-9.9589 h 9.5454 v -8.0652 h -9.5485 l 0.003,8.0652 z m 11.8372,0 h 16.9152 v -8.0652 h -16.9152 z m 18.6307,0 h 16.9152 v -8.0652 h -16.9152 z m 19.0641,0 h 16.9152 v -8.0652 h -16.9152 z m 19.0639,0 h 16.9154 v -8.0652 h -16.9154 z m 19.0641,0 h 9.7665 v -8.0652 h -9.7665 z m -87.6526,19.5936 h 6.9468 v -8.0649 h -6.9499 l 0.003,8.0649 z m 9.2389,0 h 16.9152 v -8.0649 h -16.9152 z m 18.6307,0 h 16.9152 v -8.0649 h -16.9152 z m 19.0639,0 h 16.9152 v -8.0649 h -16.9152 z m 19.0641,0 h 16.9152 v -8.0649 h -16.9152 z m 19.0639,0 h 13.496 v -8.0649 h -13.496 z m -85.0581,9.3458 h 14.1123 v -8.0651 h -14.1154 l 0.003,8.0651 z m 16.4041,0 h 16.9152 v -8.0651 h -16.9152 z m 18.631,0 h 16.9149 v -8.0651 h -16.9149 z m 19.0638,0 h 16.9152 v -8.0651 h -16.9152 z m 19.0641,0 h 16.9149 v -8.0651 h -16.9149 z m 19.0639,0 h 6.6064 l -0.0686,-8.0651 h -6.5378 z m -23.6418,8.3727 h 10.1656 v -7.0917 h -10.1656 z m 11.6362,0 h 18.3328 v -7.0917 h -18.3328 z m -80.2001,47.6697 h 5.8479 v -8.0652 h -5.851 l 0.003,8.0652 z m 8.1397,0 h 16.9152 v -8.0652 h -16.9152 z m 18.631,0 h 16.9149 v -8.0652 h -16.9149 z m 19.0639,0 h 16.9151 v -8.0652 H 510.647 Z m 19.0641,0 h 16.9149 v -8.0652 h -16.9149 z m 19.0638,0 h 13.4958 v -8.0652 h -13.4958 z m -83.9554,18.6055 h 8.0754 v -8.0652 h -8.0785 l 0.003,8.0652 z m 10.3672,0 h 16.9152 v -8.0652 h -16.9152 z m 18.631,0 h 16.9149 v -8.0652 h -16.9149 z m 19.0638,0 h 16.9152 v -8.0652 h -16.9152 z m 19.0641,0 h 16.9149 v -8.0652 h -16.9149 z m 19.0639,0 h 13.2485 l -0.0686,-8.0652 h -13.1799 z m -86.1829,18.6052 h 8.0683 v -8.0649 h -8.0717 l 0.003,8.0649 z m 10.3601,0 h 16.9152 v -8.0649 h -16.9152 z m 18.631,0 h 16.9149 v -8.0649 h -16.9149 z m 19.0638,0 h 16.9152 v -8.0649 h -16.9152 z m 19.0641,0 h 16.9149 v -8.0649 h -16.9149 z m 19.0639,0 h 13.4064 l -0.0686,-8.0649 h -13.3378 z m -86.1761,18.6054 h 8.0615 v -8.0648 h -8.0646 l 0.003,8.0648 z m 10.3533,0 h 16.9152 v -8.0648 h -16.9152 z m 18.631,0 h 16.9149 v -8.0648 h -16.9149 z m 19.0638,0 h 16.9152 v -8.0648 h -16.9152 z m 19.0641,0 h 16.9149 v -8.0648 h -16.9149 z m 19.0639,0 h 1.7439 l 11.7518,-8.0648 h -13.4957 z m -86.169,18.6982 h 5.9669 v -8.0648 h -5.97 l 0.003,8.0648 z m 8.259,0 h 16.9149 v -8.0648 h -16.9149 z m 18.6307,0 h 16.9149 v -8.0648 h -16.9149 z m 19.0639,0 h 14.7126 l 2.2028,-1.5114 v -6.5534 h -16.9154 z m 26.4648,-8.0648 h -7.4007 v 5.0788 z m -72.4113,27.0768 h 6.0378 v -8.0649 h -6.0409 l 0.003,8.0649 z m 7.3001,0 h 14.5462 v -8.0649 h -14.5462 z m 15.9346,0 h 9.7203 l 11.7522,-8.0649 h -21.4725 z m -23.2273,22.4994 5.0193,-3.3332 11.7521,-8.0652 h -16.7746 l 0.003,11.3984 z m -0.0179,-50.6571 h 16.8483 v -8.0648 H 464.834 l 0.003,8.0648 z m 19.1404,0 h 16.9152 v -8.0648 h -16.9152 z m 37.6945,0 h 16.9152 v -8.0648 H 521.672 Z m 28.9137,-8.0648 h -9.8495 v 6.7592 z m -85.3251,-10.6977 h 18.7169 v -8.0649 h -18.7169 z m 20.2442,0 h 17.7936 v -8.0649 h -17.7936 z m 19.3209,0 h 17.4671 v -8.0649 h -17.4671 z m 18.9528,0 h 17.467 v -8.0649 h -17.467 z m 18.9527,0 h 21.7644 l -0.0683,-8.0649 H 542.7312 Z M 464.8158,388.525 h 15.5472 v -8.0648 h -15.5503 l 0.003,8.0648 z m 17.0745,0 h 16.8665 v -8.0648 h -16.8665 z m 19.3207,0 h 16.4988 v -8.0648 H 501.211 Z m 18.953,0 h 15.9814 v -8.0648 H 520.164 Z m 36.4904,0 h 7.4262 v -8.0648 h -7.4262 z m -19.0233,0 h 17.4674 v -8.0648 h -17.4674 z m -72.8082,18.5131 h 15.5892 v -8.0651 h -15.5923 l 0.003,8.0651 z m 17.1165,0 h 16.8667 v -8.0651 h -16.8667 z m 19.3209,0 h 16.4985 v -8.0651 h -16.4985 z m 18.9527,0 h 15.9818 V 398.973 H 520.213 Z m 36.4907,0 h 7.4262 v -8.0651 h -7.4262 z m -19.0233,0 h 17.4671 v -8.0651 h -17.4671 z m -72.8821,-65.1662 h 5.364 v -8.0649 h -5.3672 l 0.003,8.0649 z m 6.6875,0 h 11.7907 v -8.0649 h -11.7907 z m 5.8952,9.3458 h 5.8955 v -8.0648 h -5.8955 z m -12.3917,0 h 10.565 v -8.0648 h -10.565 z m 6.8621,8.9371 h 11.7907 v -8.0649 h -11.7907 z m -6.8621,0 h 5.173 v -8.0649 h -5.173 z m 0,9.534 h 9.4864 v -8.0651 h -9.4864 z m 10.6305,0 h 8.0223 v -8.0651 h -8.0223 z m 58.0493,0 h 20.9018 v -8.0651 h -20.9018 z m 22.4583,0 h 6.9727 v -8.0651 h -6.9727 z m -6.6909,-9.534 h 13.6636 v -8.0649 h -13.6636 z m -15.7674,0 h 13.8558 v -8.0649 h -13.8558 z m 0,-9.5341 h 19.4683 v -8.0648 h -19.4683 z m 20.9018,0 h 8.5292 v -8.0648 h -8.5292 z m -20.9018,-9.5337 h 13.8558 v -8.0649 h -13.8558 z m 15.5752,0 h 13.8558 v -8.0649 h -13.8558 z m -75.1345,-9.5341 h 9.1667 v -7.0917 h -9.1667 z m -9.3155,0 h 8.297 v -7.0917 h -8.2996 l 0.003,7.0917 z m 0.0499,131.69 h 13.839 v -8.0649 h -13.8421 l 0.003,8.0649 z m 15.6733,0 h 14.019 v -8.0649 h -14.019 z m 15.8533,0 h 15.2839 l 1.8017,-1.2362 v -6.8287 h -17.0856 z m 27.036,-8.0649 h -8.1164 v 5.5698 z m -58.5555,26.7169 h 9.9558 v -8.0652 h -9.9589 l 0.003,8.0652 z m 11.8304,0 h 7.7938 l 11.7522,-8.0652 h -19.546 z"
         style="fill:#7a9640;fill-opacity:1;fill-rule:evenodd;stroke:none"
         id="path12" />
      <path
         d="m 353.9401,401.044 h 8.8217 v 8.0631 h -8.8217 z m 11.1132,0 h 16.9166 v 8.0631 h -16.9166 z m 18.6321,0 h 16.9144 v 8.0631 h -16.9144 z m 19.0642,0 h 16.9143 v 8.0631 h -16.9143 z m 19.0641,0 h 16.9143 v 8.0631 h -16.9143 z m 19.0641,0 h 13.3532 l 0.0247,8.0631 h -13.3779 z m -86.9377,18.7038 h 8.8217 v 8.0632 h -8.8217 z m 1.6478,18.7039 h 7.1739 v 5.5984 z m 9.4654,-18.7039 h 16.9166 v 8.0632 h -16.9166 z m 0,18.7039 h 16.9166 v 8.0657 h -16.0475 l -0.8691,-0.6778 z m 14.4992,18.7038 h 2.4174 v 1.8865 z m 4.1329,-37.4077 h 16.9144 v 8.0632 h -16.9144 z m 0,18.7039 h 16.9144 v 8.0657 h -16.9144 z m 0,18.7038 h 16.9144 v 8.0657 h -10.715 l -6.1994,-4.8399 z m 19.0642,-37.4077 h 16.9143 v 8.0632 h -16.9143 z m 0,18.7039 h 16.9143 v 8.0657 h -16.9143 z m 0,18.7038 h 16.9143 v 8.0657 h -16.9143 z m 0.7676,18.7041 h 16.1467 v 8.0654 h -5.8144 z m 18.2965,-56.1118 h 16.9143 v 8.0632 h -16.9143 z m 0,18.7039 h 16.9143 v 8.0657 h -16.9143 z m 0,18.7038 h 16.9143 v 8.0657 h -16.9143 z m 0,18.7041 h 16.9143 v 8.0654 h -16.9143 z m 5.6682,18.7041 h 11.2461 v 8.0655 h -0.9139 z m 13.3959,-74.8159 h 13.4071 l 0.0249,8.0632 h -13.432 z m 0,18.7039 h 13.4612 l 0.0247,8.0657 h -13.4859 z m 0,18.7038 h 13.4949 v 8.0657 h -13.4949 z m 0,18.7041 h 13.4949 v 8.0654 h -13.4949 z m 0,18.7041 h 13.4949 v 8.0655 h -13.4949 z m -86.9377,-84.1691 h 15.0752 v 8.0654 h -15.0752 z m 17.3667,0 h 16.9144 v 8.0654 h -16.9144 z m 18.6296,0 h 16.9166 v 8.0654 h -16.9166 z m 19.0641,0 h 16.9166 v 8.0654 h -16.9166 z m 19.0642,0 h 16.9166 v 8.0654 h -16.9166 z m 19.0641,0 h 7.1291 l 0.0247,8.0654 h -7.1538 z m -93.1887,18.7039 h 15.0752 v 8.0657 h -15.0752 z m 13.6301,18.7041 h 1.4451 v 1.1279 z m 3.7366,-18.7041 h 16.9144 v 8.0657 h -16.9144 z m 0,18.7041 h 16.9144 v 8.0654 h -10.3187 l -6.5957,-5.1483 z m 18.6296,-18.7041 h 16.9166 v 8.0657 h -16.9166 z m 0,18.7041 h 16.9166 v 8.0654 h -16.9166 z m 1.5985,18.7041 h 15.3181 v 8.0654 h -4.9859 z m 17.4656,-37.4082 h 16.9166 v 8.0657 h -16.9166 z m 0,18.7041 h 16.9166 v 8.0654 h -16.9166 z m 0,18.7041 h 16.9166 v 8.0654 h -16.9166 z m 6.4987,18.7039 h 10.4179 v 8.0654 h -0.0853 z m 12.5655,-56.1121 h 16.9166 v 8.0657 h -16.9166 z m 0,18.7041 h 16.9166 v 8.0654 h -16.9166 z m 0,18.7041 h 16.9166 v 8.0654 h -16.9166 z m 0,18.7039 h 16.9166 v 8.0654 h -16.9166 z m 11.3972,18.7038 h 5.5194 v 4.3084 z m 7.6669,-74.8159 h 7.1833 l 0.0246,8.0657 h -7.2079 z m 0,18.7041 h 7.2371 l 0.0247,8.0654 h -7.2618 z m 0,18.7041 h 7.2913 l 0.0246,8.0654 h -7.3159 z m 0,18.7039 h 7.3451 l 0.025,8.0654 h -7.3701 z m 0,18.7038 h 7.3993 l 0.0246,11.7865 -4.7562,-3.7211 -2.6677,-2.0798 z M 353.9401,382.5312 h 8.8217 v 8.0631 h -8.8217 z m 0,-18.5148 h 8.8217 v 8.0654 h -8.8217 z m 8.8217,-17.0697 v 6.6226 h -8.8217 z m 2.2915,35.5845 h 16.9166 v 8.0631 h -16.9166 z m 0,-18.5148 h 16.9166 v 8.0654 h -16.9166 z m 0,-18.5125 h 16.9166 v 8.0654 h -16.9166 z m 16.9166,-12.9773 v 2.5299 h -3.3718 z m 1.7155,50.0046 h 4.8983 v 8.0631 h -4.8983 z m 0,-18.5148 h 4.8983 v 8.0654 h -4.8983 z m 0,-18.5125 h 4.8983 v 8.0654 h -4.8983 z m 5.6546,-18.5128 h 11.2598 v 8.0654 h -16.9144 v -3.8199 z m 13.4096,0 h 2.5007 v 8.0654 h -2.5007 z m 2.5007,-10.4471 h -1.9942 l 1.9942,-1.4969 z m 29.6082,65.9872 h 3.8695 v 8.0631 h -3.8695 z m 0,-18.5148 h 3.8695 v 8.0654 h -3.8695 z m 0,-18.5125 h 3.8695 v 8.0654 h -3.8695 z m -10.0982,-18.5128 h 13.9677 v 8.0654 h -13.9677 z m 0,-18.5125 h 13.9677 v 8.0654 H 424.7603 Z M 438.728,289.912 v 6.7756 h -9.0246 z m 2.1498,92.6192 h 13.2991 l 0.0246,8.0631 h -13.3237 z m 0,-18.5148 h 13.2475 l 0.0224,8.0654 h -13.2699 z m 0,-18.5125 h 13.1933 l 0.0224,8.0654 h -13.2157 z m 0,-18.5128 h 13.1395 l 0.0246,8.0654 h -13.1641 z m 0,-18.5125 h 13.0853 l 0.0247,8.0654 h -13.11 z m 0,-19.8567 h 13.0289 l 0.0227,8.0657 H 440.8778 Z M 353.9401,391.551 h 15.0752 v 8.0657 h -15.0752 z m 17.3667,0 h 16.9144 v 8.0657 h -16.9144 z m 18.6296,0 h 16.9166 v 8.0657 h -16.9166 z m 19.0641,0 h 16.9166 v 8.0657 h -16.9166 z m 19.0642,0 h 16.9166 v 8.0657 h -16.9166 z m 19.0641,0 h 7.0753 l 0.0224,8.0657 h -7.0977 z m -93.1887,-18.1973 h 15.0752 v 8.0654 h -15.0752 z m 17.3667,0 h 16.9144 v 8.0654 h -16.9144 z m 63.5517,0 h 10.1228 v 8.0654 h -10.1228 z m 12.2703,0 h 7.0234 l 0.0224,8.0654 h -7.0458 z m -93.1887,-18.8572 h 15.0752 v 8.0635 h -15.0752 z m 17.3667,0 h 16.9144 v 8.0635 h -16.9144 z m 63.5517,0 h 10.1228 v 8.0635 h -10.1228 z m 12.2703,0 h 6.967 l 0.0246,8.0635 h -6.9916 z m -78.1135,-12.2454 v 2.0143 h -2.6855 z m 8.0566,-6.0485 h 11.1493 v 8.0628 h -16.9144 v -3.7343 z m 12.8645,0 h 15.3139 v 2.0055 h 1.6027 v 6.0573 h -16.9166 z m 34.8239,0 h 1.1568 v 8.0628 h -16.9166 v -6.0573 h 15.7598 z m 3.3044,0 h 16.9166 v 8.0628 h -16.9166 z m 19.0641,0 h 6.9154 l 0.0224,8.0628 h -6.9378 z m -44.9039,-18.8841 h 3.0254 v 8.0654 H 391.483 Z m 22.5354,0 h 1.1568 v 8.0654 h -1.1568 z m 3.3044,0 h 16.9166 v 8.0654 h -16.9166 z m 19.0641,0 h 6.8612 l 0.0224,8.0654 h -6.8836 z m -21.2117,-17.788 v 6.751 h -1.1568 v -5.8822 z m 2.1476,-1.3147 h 16.9166 v 8.0657 h -16.9166 z m 19.0641,0 h 6.8051 l 0.0247,8.0657 h -6.8298 z m -2.1475,-12.9974 v 1.3844 h -1.8457 z m 8.9189,1.3844 h -6.7714 v -2.9985 l 6.7487,-5.0646 z m -28.1067,-31.4087 h 17.9859 v 8.0654 h -17.9859 z m 19.5526,0 h 9.0198 v 8.0654 h -9.0198 z m -19.5526,-20.0007 h 17.9859 v 8.0657 h -17.9859 z m 0,-19.9984 h 17.9859 v 8.0657 h -17.9859 z m 0,-18.9808 h 17.9859 v 8.0657 h -17.9859 z m 17.9859,-19.0009 v 8.0654 h -17.9859 z m 1.5667,57.9801 h 9.0198 v 8.0657 h -9.0198 z m 0,-19.9984 h 9.0198 v 8.0657 h -9.0198 z m 0,-18.9808 h 9.0198 v 8.0657 h -9.0198 z m 0,-19.2218 9.0198,-4.045 v 12.3313 h -9.0198 z m 9.0198,9.396 h -15.1472 v 8.0657 h 15.1472 z m -16.6668,0 h -11.9056 v 8.0657 h 11.9056 z m 16.6668,19.5412 h -15.1472 v 8.0657 h 15.1472 z m -16.6668,0 h -11.9056 v 8.0657 h 11.9056 z m 16.6668,19.2646 h -15.1472 v 8.0654 h 15.1472 z m -16.6668,0 h -11.9056 v 8.0654 h 11.9056 z m 16.6668,19.6764 h -15.1472 v 8.0631 h 15.1472 z m -16.6668,0 h -11.9056 v 8.0631 h 11.9056 z m 10.4428,19.4536 h -22.3484 v 8.0657 z m -95.881,-9.5196 h 16.5699 v 8.0654 h -16.5699 z m 27.5391,0 v 8.0654 h -9.8909 z m 0,-10.3235 h -15.9687 v 8.0657 H 379.8 Z m -17.2451,0 h -10.294 v 8.0657 h 10.294 z M 379.8,225.1942 h -15.9687 v 8.0654 H 379.8 Z m -17.2451,0 h -10.294 v 8.0654 h 10.294 z M 379.8,206.0785 h -11.0571 l -4.9116,2.6606 v 5.4025 H 379.8 Z m -24.2413,8.0631 h 6.9962 v -4.8623 z m -3.2978,1.0534 h 15.9689 v 8.0657 h -15.9689 z m 17.2451,0 H 379.8 v 8.0657 h -10.294 z m -17.2451,19.9219 h 15.9689 v 8.0634 h -15.9689 z m 17.2451,0 H 379.8 v 8.0634 h -10.294 z m -17.2451,19.6877 v 8.0654 z m 17.6482,0 H 379.8 l -9.8909,8.0654 z m -17.6482,9.6165 h 9.0198 v 8.8263 l -9.0198,3.111 z m 10.5349,0 H 379.8 v 1.2269 l -17.0042,6.8632 z m 17.0042,-63.428 -8.617,4.0317 h 8.617 z m 31.0397,190.5579 h 1.7625 v -22.7602 h 22.7605 v -1.7648 h -22.7605 v -22.7606 h -1.7625 v 22.7606 h -22.7603 v 1.7648 h 22.7603 z"
         style="fill:#000004;fill-opacity:1;fill-rule:evenodd;stroke:none"
         id="path14" />
      <path
         d="m 619.0781,143.4963 c 35.4745,8.0402 -2.2575,37.2271 -15.3425,46.2886 1.1764,0 2.2785,0.6035 3.4549,0.6035 40.7692,-22.3129 109.699,-75.3741 15.167,-79.1203 -93.4404,-3.7029 -248.7705,48.2434 -330.2867,88.1509 -94.841,46.4307 -135.4169,107.5947 40.1545,82.3076 -0.3923,-1.0624 -0.1962,-0.5312 -0.5882,-1.5939 -16.0291,0.9116 -29.4831,1.988 -39.4506,0.8122 -71.5164,-8.4334 8.1116,-61.9555 112.0646,-99.6994 82.5077,-29.9573 179.7281,-46.2526 214.827,-37.7492"
         style="fill:#000004;fill-opacity:1;fill-rule:evenodd;stroke:none"
         id="path16" />
      <path
         d="m 460.7986,234.5236 h 49.214 V 224.132 h -18.2347 v -31.4206 h -11.8378 v 31.4206 h -19.1415 z"
         style="fill:#000004;fill-opacity:1;fill-rule:evenodd;stroke:none"
         id="path18" />
      <path
         d="m 528.283,224.6465 v -31.9351 h -13.0501 v 41.8122 c 7.4834,0 14.9669,0 22.4503,0 3.8234,-7.4946 7.6468,-14.9894 11.4702,-22.4839 5.6395,6.7521 11.7586,21.5476 5.6276,32.1673 -6.5665,11.3737 -26.3532,7.014 -40.1431,-8.1882 -3.9518,0.1959 -7.9039,0.3921 -11.8554,0.5882 12.4504,17.5164 40.5681,31.8997 54.7455,20.6864 18.6242,-14.7311 3.0427,-51.1945 -14.845,-62.4498 -4.8002,9.9343 -9.6001,19.8686 -14.4,29.8029"
         style="fill:#000004;fill-opacity:1;fill-rule:evenodd;stroke:none"
         id="path20" />
      <path
         d="m 478.3714,190.4221 c 0.9147,0 1.83,0 2.7448,0 21.6663,-39.571 83.0767,6.3542 88.0361,44.1015 5.7189,0 11.4376,0 17.1565,0 0,-13.9374 0,-27.8748 0,-41.8122 -4.3135,0 -8.627,0 -12.9408,0 0.0326,7.4945 0.0655,14.989 0.0981,22.4836 -0.4575,0 -0.915,0 -1.3725,0 -9.0442,-26.822 -71.4087,-69.9126 -93.7222,-24.7729 z m 125.6332,35.9255 15.6365,-33.6362 h 11.5682 l 14.4603,30.7259 v -30.7259 h 13.0388 v 41.8122 c -7.1075,0 -14.2151,0 -21.3227,0 l -11.7644,-23.2093 -11.5682,23.2093 h -23.0873 v -41.8122 h 13.0388 z"
         style="fill:#ef7c00;fill-opacity:1;fill-rule:evenodd;stroke:none"
         id="path22" />
      <path
         d="m 220.6701,295.698 c -18.1789,0.6979 -47.5172,4.1826 -64.3723,-0.4663 -26.4954,-7.308 -18.3345,-25.4162 -2.6274,-42.0233 53.3149,-56.3709 153.5167,-83.3698 225.4425,-103.6335 l -0.4901,1.9851 c -51.1192,11.501 -316.1123,132.516 -158.355,142.8137 0.1341,0.4414 0.2682,0.883 0.4023,1.3243"
         style="fill:#ef7c00;fill-opacity:1;fill-rule:evenodd;stroke:none"
         id="path24" />
      <path
         d="m 485.0785,369.4717 h 21.96 V 348.296 h -21.96 z"
         style="fill:#ef7c00;fill-opacity:1;fill-rule:evenodd;stroke:none"
         id="path26" />
      <path
         d="m 509.7835,369.4717 h 21.96 V 348.296 h -21.96 z"
         style="fill:#ef7c00;fill-opacity:1;fill-rule:evenodd;stroke:none"
         id="path28" />
      <path
         d="m 485.0785,346.235 h 21.96 v -21.176 h -21.96 z"
         style="fill:#ef7c00;fill-opacity:1;fill-rule:evenodd;stroke:none"
         id="path30" />
      <path
         d="m 509.7835,346.235 h 21.96 v -21.176 h -21.96 z"
         style="fill:#ef7c00;fill-opacity:1;fill-rule:evenodd;stroke:none"
         id="path32" />
      <path
         d="m 191.6342,182.9588 c -0.4232,0.2676 -0.8728,0.6528 -1.3493,1.1554 -0.4759,0.5026 -0.8308,1.1594 -1.0644,1.9707 -0.2335,0.8112 -0.2316,1.8172 0.006,3.0177 l 0.3767,2.0016 -7.0095,4.4319 -5.076,-3.4738 -1.1937,0.7548 17.8112,12.2012 0.8635,-0.5462 -2.9787,-17.1358 c -0.178,-1.1437 -0.1953,-2.0332 -0.0521,-2.6688 0.1431,-0.6355 0.532,-1.2016 1.1664,-1.6974 l -0.3532,-0.559 c -0.157,0.0519 -0.3407,0.1268 -0.5516,0.2246 -0.2106,0.0977 -0.409,0.2055 -0.5956,0.3231 z m 506.6856,-88.204 c -1.1682,-0.358 -2.1473,-0.5482 -2.9364,-0.5703 -0.7895,-0.0221 -1.4318,0.0901 -1.9262,0.3365 -0.4563,0.2582 -0.7894,0.6276 -0.9998,1.1078 -0.21,0.4804 -0.4266,1.0842 -0.6497,1.8121 l 0.6894,0.2112 c 0.4408,-0.8912 1.0639,-1.5225 1.8692,-1.8938 0.8053,-0.3711 1.8113,-0.3716 3.0178,-0.0017 1.0916,0.3348 1.8181,0.7671 2.1792,1.2968 0.3615,0.5298 0.4541,1.082 0.2778,1.6566 -0.176,0.5746 -0.5417,0.9811 -1.0967,1.2195 -0.555,0.2384 -1.3068,0.4008 -2.255,0.487 l -1.8864,0.2072 c -1.2268,0.1057 -2.2453,0.3696 -3.0555,0.7917 -0.8104,0.4221 -1.3595,1.1024 -1.6472,2.0407 -0.3759,1.2257 -0.1927,2.3031 0.5488,3.2323 0.7415,0.9295 1.8213,1.6115 3.2383,2.0461 1.1109,0.3404 2.0608,0.5218 2.8502,0.5439 0.7895,0.0219 1.4219,-0.0932 1.8975,-0.3452 0.4754,-0.2526 0.8181,-0.6188 1.0282,-1.0993 0.21,-0.4802 0.4269,-1.084 0.65,-1.8119 l -0.6891,-0.2112 c -0.4414,0.8912 -1.0645,1.5225 -1.8695,1.8935 -0.8053,0.3714 -1.7824,0.3807 -2.9316,0.0284 -0.9193,-0.2818 -1.55,-0.6849 -1.8921,-1.2087 -0.3424,-0.5241 -0.4255,-1.0732 -0.2492,-1.6478 0.1528,-0.498 0.4842,-0.8782 0.9941,-1.1409 0.5103,-0.2625 1.1569,-0.4417 1.9404,-0.5363 l 1.944,-0.19 c 1.4224,-0.1295 2.5455,-0.3926 3.3689,-0.7894 0.8238,-0.3971 1.3884,-1.0936 1.6937,-2.0894 0.3759,-1.2257 0.1642,-2.312 -0.6349,-3.259 -0.7991,-0.9471 -1.9554,-1.6523 -3.4682,-2.1164 z m -11.7712,-2.7776 -4.0549,15.6174 c -0.2265,0.8725 -0.5301,1.5441 -0.9108,2.0143 -0.381,0.4703 -1.0077,0.5922 -1.8802,0.3657 l -0.5236,-0.136 -0.1735,0.6686 2.85,0.7402 c 0.6789,0.1763 1.2322,0.2165 1.6608,0.1207 0.4283,-0.0955 0.7869,-0.3801 1.0752,-0.8538 0.2886,-0.4736 0.5587,-1.1951 0.8104,-2.1645 l 4.0547,-15.6175 z M 675.786,89.1729 c -0.5275,-0.1208 -1.0612,-0.1662 -1.6027,-0.1361 -0.5411,0.03 -1.0683,0.1559 -1.5817,0.3773 -0.5131,0.2214 -0.9658,0.5595 -1.3575,1.0142 -0.392,0.4547 -0.6732,1.0531 -0.8433,1.7952 -0.2373,1.0349 -0.1077,1.9276 0.3881,2.6785 0.4957,0.7506 1.2846,1.3886 2.3663,1.9139 1.0817,0.5255 2.3743,0.9607 3.8778,1.3054 l 0.7617,0.1746 c -0.3045,1.3277 -0.6645,2.3139 -1.0792,2.9585 -0.415,0.6449 -0.8781,1.0525 -1.3901,1.2226 -0.5116,0.1706 -1.0604,0.1888 -1.6461,0.0544 -0.7809,-0.1791 -1.4048,-0.5068 -1.8708,-0.9836 -0.466,-0.4771 -0.6925,-1.2379 -0.6792,-2.2828 l -1.4057,-0.3223 c -0.1162,0.5074 -0.1987,1.0024 -0.2478,1.4843 -0.0487,0.4821 0.0698,0.9513 0.3558,1.4071 0.2857,0.4561 0.8257,0.8575 1.62,1.2039 0.794,0.3463 1.6398,0.6224 2.5381,0.8285 0.7421,0.1701 1.4565,0.2361 2.1433,0.1984 0.6868,-0.0379 1.3246,-0.2205 1.9134,-0.5476 0.589,-0.3277 1.1166,-0.8592 1.5834,-1.5948 0.4666,-0.7356 0.8431,-1.728 1.1293,-2.9778 l 1.8131,-7.9075 -1.728,-0.3963 -1.3272,1.0828 -0.1465,-0.0334 c -0.2036,-0.4578 -0.5882,-0.9312 -1.154,-1.4207 -0.5661,-0.4893 -1.3762,-0.855 -2.4305,-1.0967 z m 0.8921,1.6228 c 0.7027,0.161 1.2206,0.4799 1.5528,0.957 0.3325,0.477 0.5743,0.9691 0.7251,1.4762 l -0.8861,3.8659 -0.7616,-0.1743 c -1.4449,-0.3311 -2.4926,-0.849 -3.1425,-1.5528 -0.6509,-0.7039 -0.8708,-1.5148 -0.6605,-2.4327 0.2106,-0.9176 0.6211,-1.5429 1.2316,-1.8754 0.6106,-0.3328 1.2575,-0.421 1.9412,-0.2639 z m -11.4015,-3.3435 -1.8601,10.2592 c -0.1607,0.8869 -0.4136,1.5792 -0.7583,2.0763 -0.3444,0.4975 -0.9603,0.6659 -1.8473,0.5049 l -0.5026,-0.091 -0.1233,0.68 2.8678,0.5199 c 0.69,0.125 1.2447,0.1239 1.6651,-0.003 0.4201,-0.1275 0.7563,-0.4379 1.0086,-0.9317 0.2522,-0.4938 0.468,-1.2334 0.6465,-2.219 l 1.8601,-10.2591 -2.9565,-0.5361 z m -1.4998,15.8516 c -0.5321,-0.0963 -1.0026,0.027 -1.4108,0.3702 -0.4085,0.3436 -0.6608,0.7813 -0.7571,1.3136 -0.0789,0.4334 -0.007,0.7974 0.214,1.0922 0.2216,0.2948 0.5391,0.4796 0.9533,0.5545 0.532,0.0963 1.0014,-0.0221 1.4076,-0.3555 0.4068,-0.3334 0.6582,-0.7662 0.7549,-1.2983 0.0785,-0.4337 0.008,-0.803 -0.2117,-1.1072 -0.2197,-0.3044 -0.5364,-0.4943 -0.9502,-0.5695 z M 653.2075,85.487 651.6629,95.7983 c -0.1335,0.8915 -0.3648,1.5913 -0.6942,2.0987 -0.3291,0.5077 -0.9394,0.6948 -1.8309,0.5613 l -0.297,-0.0445 -0.1027,0.6834 2.5263,0.3785 c 0.7327,0.1097 1.3079,0.0895 1.7254,-0.0607 0.4173,-0.15 0.7478,-0.4297 0.9916,-0.8388 0.2863,0.3872 0.7248,0.8073 1.315,1.2603 0.5904,0.4533 1.3119,0.7435 2.1637,0.8711 0.3367,0.0504 0.6842,0.0618 1.0428,0.0346 0.3586,-0.0275 0.6588,-0.1038 0.9003,-0.2296 0.2843,-0.1398 0.5244,-0.3218 0.7197,-0.5457 0.1956,-0.2237 0.3691,-0.4357 0.5205,-0.6358 l -1.1305,-1.1719 c -0.2628,0.2642 -0.6052,0.4561 -1.0284,0.5752 -0.4226,0.1188 -0.8918,0.1395 -1.4068,0.0624 -0.6143,-0.0919 -1.1404,-0.2974 -1.5786,-0.616 -0.4386,-0.3189 -0.7765,-0.6988 -1.0146,-1.1395 0.0468,-0.1752 0.0848,-0.362 0.1143,-0.5602 0.0297,-0.1981 0.0535,-0.3566 0.0711,-0.4753 l 1.5092,-10.0738 z m -9.3367,-1.6098 c -1.3924,-0.1673 -2.6048,0.015 -3.6369,0.5468 -1.0324,0.5317 -1.8589,1.3252 -2.48,2.3802 -0.6211,1.0554 -1.0128,2.2592 -1.1753,3.6116 -0.1695,1.4123 -0.0671,2.7006 0.3076,3.8654 0.3745,1.1647 0.9816,2.1152 1.8213,2.8516 0.8396,0.7362 1.8759,1.1787 3.1093,1.3266 1.3326,0.1602 2.4814,0.0409 3.4475,-0.3574 0.9657,-0.3986 1.7396,-1.0471 2.3218,-1.9457 0.582,-0.8983 0.9542,-2.024 1.1166,-3.3764 l 0.1052,-1.3793 -9.0394,-1.0857 c 0.2055,-1.7107 0.712,-3.0316 1.5202,-3.9637 0.8079,-0.9317 1.8085,-1.326 3.0019,-1.1826 0.9944,0.1191 1.7886,0.4366 2.3825,0.9516 0.5936,0.5154 1.1049,1.1719 1.5338,1.9701 l 0.7172,-0.4283 c -0.2968,-0.7217 -0.6806,-1.3479 -1.1514,-1.8788 -0.4709,-0.5307 -1.0253,-0.955 -1.6628,-1.2739 -0.6376,-0.3186 -1.3839,-0.5295 -2.2391,-0.6321 z m -4.2528,7.6906 5.9666,0.7166 c -0.2149,1.7901 -0.6287,3.0921 -1.2407,3.9062 -0.6123,0.8141 -1.4057,1.1628 -2.3803,1.046 -0.557,-0.0669 -1.0332,-0.341 -1.4295,-0.8226 -0.3963,-0.4814 -0.6809,-1.1359 -0.8535,-1.9636 -0.1732,-0.828 -0.1942,-1.7887 -0.0626,-2.8826 z m -7.2443,-9.0456 c -1.1369,-0.1035 -2.0843,0.1375 -2.8414,0.7223 -0.7572,0.585 -1.1982,1.5655 -1.3232,2.9421 l -0.83,9.1269 -2.0047,-0.1822 -0.1117,1.2268 2.005,0.1823 -0.2446,2.6932 1.3328,1.9312 1.5262,0.1389 0.4079,-4.4886 3.5013,0.3183 0.1114,-1.2271 -3.501,-0.3184 0.8322,-9.1564 c 0.087,-0.9576 0.315,-1.641 0.684,-2.0498 0.3691,-0.409 0.8731,-0.5845 1.5115,-0.5266 0.5187,0.0473 0.9513,0.157 1.2977,0.3291 0.3463,0.1726 0.6516,0.3512 0.9167,0.5363 l 0.3889,-0.6288 c -0.3138,-0.3101 -0.7478,-0.6261 -1.3017,-0.9479 -0.5541,-0.322 -1.3396,-0.5292 -2.3573,-0.6216 z m -15.3354,-1.3311 c -0.54,-0.0318 -1.0743,0.0119 -1.603,0.1315 -0.5287,0.119 -1.0276,0.3305 -1.4973,0.6341 -0.4694,0.3033 -0.8594,0.7121 -1.1704,1.2254 -0.3112,0.5134 -0.4892,1.15 -0.534,1.91 -0.0624,1.0599 0.2134,1.9188 0.8268,2.577 0.6135,0.6579 1.497,1.1565 2.651,1.4952 1.154,0.3388 2.5007,0.5537 4.0405,0.6441 l 0.7801,0.0459 c -0.0802,1.3601 -0.2713,2.3922 -0.5734,3.0966 -0.3025,0.7047 -0.692,1.1834 -1.1685,1.4363 -0.4762,0.2528 -1.0145,0.362 -1.6143,0.3265 -0.7997,-0.0473 -1.4692,-0.267 -2.0078,-0.6599 -0.5389,-0.3929 -0.8881,-1.1058 -1.0483,-2.1387 l -1.4394,-0.0845 c -0.0309,0.5199 -0.0303,1.0213 10e-4,1.5049 0.0318,0.4836 0.2265,0.9264 0.584,1.3286 0.3577,0.4025 0.9567,0.7087 1.7971,0.9185 0.8405,0.21 1.7207,0.3421 2.6405,0.396 0.76,0.045 1.4754,-0.0083 2.1467,-0.1596 0.6709,-0.1511 1.2696,-0.4369 1.796,-0.8572 0.5267,-0.4207 0.9587,-1.0324 1.2971,-1.8355 0.3382,-0.8027 0.5449,-1.8436 0.62,-3.1235 l 0.4765,-8.0991 -1.77,-0.104 -1.129,1.288 -0.15,-0.0088 c -0.2763,-0.4175 -0.7341,-0.8206 -1.3736,-1.2095 -0.6392,-0.3889 -1.499,-0.6148 -2.5787,-0.6783 z m 1.1489,1.4519 c 0.7197,0.0425 1.2832,0.2712 1.69,0.6865 0.4071,0.4153 0.7271,0.8603 0.9601,1.3357 l -0.233,3.9594 -0.7801,-0.0459 c -1.4797,-0.087 -2.5985,-0.4238 -3.3568,-1.0103 -0.758,-0.5862 -1.1095,-1.3495 -1.0542,-2.2895 0.0553,-0.9397 0.3566,-1.6243 0.9034,-2.0534 0.5471,-0.4295 1.1704,-0.6236 1.8706,-0.5825 z m -6.9327,-3.0204 c -1.4414,-0.0479 -2.5903,0.1395 -3.4461,0.5622 -0.8558,0.4223 -1.4695,1.1035 -1.8417,2.0432 -0.3716,0.9397 -0.5828,2.1603 -0.6327,3.6618 l -0.3758,11.3215 -6.7221,-16.668 -0.6905,-0.0229 -8.4566,16.5549 0.5584,-16.8171 -1.2614,-0.042 -0.6579,19.8201 3.0631,0.1018 7.7179,-15.1364 6.3365,15.6033 3.0031,0.0995 0.4887,-14.715 c 0.0603,-1.8218 0.3177,-3.2315 0.7715,-4.2284 0.4542,-0.9972 1.1622,-1.4998 2.1246,-1.5077 z m -46.9052,0.6393 0.1568,10.4252 c 0.0133,0.9012 -0.1009,1.6294 -0.343,2.1838 -0.2421,0.5545 -0.8138,0.8385 -1.715,0.8521 l -0.5111,0.0077 0.0105,0.6911 2.7641,-0.0414 c 0.741,-0.0111 1.3053,-0.1199 1.6931,-0.326 0.3875,-0.2064 0.6684,-0.5009 0.843,-0.8841 0.4057,0.3342 0.9565,0.6568 1.6524,0.9669 0.6959,0.3101 1.5344,0.4578 2.5157,0.443 0.9615,-0.0144 1.8354,-0.1879 2.6218,-0.5201 0.7863,-0.3325 1.4139,-0.893 1.883,-1.6813 0.4689,-0.7886 0.6928,-1.8935 0.6713,-3.3157 l -0.135,-8.9832 -3.0044,0.045 0.1352,8.9833 c 0.0148,1.0015 -0.1233,1.8 -0.415,2.3953 -0.2917,0.5953 -0.6758,1.0267 -1.1525,1.2946 -0.4768,0.2673 -0.9956,0.4053 -1.5565,0.4138 -0.6007,0.0091 -1.1486,-0.1227 -1.6436,-0.396 -0.4949,-0.2729 -0.9153,-0.587 -1.2614,-0.9425 l -0.1749,-11.6572 z m -10.6135,-0.0567 c -1.4212,0.047 -2.6265,0.4172 -3.6158,1.1114 -0.9893,0.694 -1.7309,1.6104 -2.2241,2.7491 -0.4935,1.1386 -0.7183,2.3785 -0.6741,3.7202 0.0451,1.3612 0.3512,2.5888 0.9185,3.6824 0.5672,1.0937 1.3671,1.954 2.4,2.5816 1.0327,0.6273 2.2601,0.9172 3.6814,0.8705 1.4213,-0.0471 2.6269,-0.4176 3.6159,-1.1115 0.9893,-0.6942 1.7308,-1.6055 2.2249,-2.7343 0.4938,-1.1285 0.7183,-2.3734 0.6732,-3.7349 -0.0442,-1.3414 -0.3501,-2.564 -0.9176,-3.6675 -0.5675,-1.1038 -1.3677,-1.9692 -2.4009,-2.5965 -1.0327,-0.6273 -2.2598,-0.9176 -3.6814,-0.8705 z m 0.0409,1.2311 c 0.7407,-0.0244 1.3904,0.2298 1.9491,0.7628 0.559,0.5326 0.9986,1.2546 1.3192,2.1659 0.3206,0.9113 0.4998,1.9378 0.5375,3.0787 0.0382,1.1614 -0.0726,2.2023 -0.3328,3.1224 -0.2603,0.921 -0.6514,1.665 -1.1741,2.2337 -0.5222,0.5683 -1.1537,0.8648 -1.8944,0.8892 -0.741,0.0247 -1.3907,-0.2296 -1.9494,-0.7625 -0.5587,-0.5326 -0.9981,-1.2498 -1.3187,-2.1509 -0.3203,-0.9015 -0.4997,-1.9327 -0.538,-3.0941 -0.0377,-1.1409 0.0734,-2.177 0.3336,-3.1073 0.2597,-0.9306 0.6509,-1.6801 1.1733,-2.2484 0.5221,-0.5684 1.154,-0.8649 1.8947,-0.8895 z m -13.0615,-0.4448 0.6792,10.4043 c 0.0586,0.8994 -0.0193,1.6325 -0.233,2.1982 -0.2141,0.5661 -0.7708,0.8782 -1.6702,0.9369 l -0.5097,0.0334 0.0448,0.6897 2.9083,-0.1899 c 0.6999,-0.0454 1.2379,-0.1809 1.6149,-0.4062 0.3765,-0.2256 0.6276,-0.608 0.7532,-1.1483 0.1253,-0.5403 0.1553,-1.3102 0.0899,-2.3097 l -0.6789,-10.404 z m 2.3825,15.7433 c -0.5397,0.0352 -0.966,0.2688 -1.279,0.7008 -0.3132,0.432 -0.4521,0.9178 -0.417,1.4575 0.0287,0.4397 0.186,0.7756 0.4723,1.008 0.2863,0.2322 0.6392,0.3348 1.059,0.3073 0.5397,-0.0354 0.9663,-0.2639 1.2801,-0.6857 0.3138,-0.4221 0.453,-0.9028 0.4179,-1.4425 -0.0287,-0.44 -0.1866,-0.781 -0.4734,-1.0231 -0.2869,-0.2423 -0.6401,-0.3498 -1.0599,-0.3223 z m -8.7585,-15.6282 c -1.1392,0.0743 -2.0378,0.4592 -2.6949,1.1545 -0.6571,0.6954 -0.9408,1.7326 -0.8509,3.1119 l 0.5969,9.1449 -2.0089,0.1312 0.0805,1.2294 2.0087,-0.1313 0.1763,2.6986 1.6166,1.7011 1.529,-0.0998 -0.2934,-4.4974 3.5079,-0.2291 -0.0803,-1.2294 -3.5078,0.2291 -0.599,-9.1752 c -0.0626,-0.9592 0.0567,-1.6696 0.3577,-2.1308 0.3011,-0.4615 0.7716,-0.7129 1.4114,-0.7546 0.5196,-0.034 0.9638,0.0071 1.3329,0.1236 0.369,0.1162 0.6987,0.2455 0.9887,0.3872 l 0.2868,-0.6811 c -0.358,-0.2577 -0.8359,-0.5026 -1.4331,-0.7348 -0.5973,-0.2319 -1.4055,-0.3143 -2.4251,-0.248 z m -12.9821,0.9303 c -1.5171,0.1256 -2.7479,0.559 -3.6913,1.3003 -0.9436,0.7412 -1.614,1.6911 -2.0106,2.8494 -0.3968,1.1582 -0.54,2.4063 -0.4294,3.744 0.1125,1.3575 0.4586,2.5698 1.0394,3.6374 0.5806,1.0678 1.3972,1.8895 2.45,2.4658 1.0525,0.5763 2.3375,0.8017 3.8546,0.6767 1.078,-0.0893 1.98,-0.2444 2.7053,-0.4652 0.7254,-0.2205 1.2623,-0.5363 1.6101,-0.9471 0.3481,-0.4107 0.5284,-0.9028 0.5412,-1.4765 0.013,-0.5743 -0.0275,-1.4301 -0.1216,-2.5679 l -0.6588,0.0544 c 0.0255,1.2844 -0.2996,2.2708 -0.9766,2.9599 -0.6766,0.6891 -1.5542,1.0783 -2.6319,1.1673 -0.9383,0.0777 -1.7334,-0.1182 -2.3851,-0.5867 -0.6517,-0.4689 -1.1701,-1.1444 -1.5545,-2.0271 -0.3844,-0.883 -0.627,-1.9332 -0.7277,-3.151 -0.0975,-1.1778 -0.0343,-2.2382 0.1894,-3.1816 0.2234,-0.9431 0.6228,-1.7045 1.1979,-2.2844 0.5752,-0.5806 1.3419,-0.9102 2.3,-0.9893 1.0582,-0.0873 1.9299,0.0615 2.615,0.4473 0.6849,0.3855 1.3175,0.9261 1.8978,1.622 l 0.6463,-0.5661 c -0.4552,-0.6457 -0.9666,-1.1815 -1.5347,-1.6067 -0.5675,-0.4255 -1.2058,-0.7296 -1.9145,-0.9122 -0.7084,-0.1828 -1.512,-0.2367 -2.4103,-0.1627 z m -16.9138,1.5296 c -0.9362,0.1012 -1.7804,0.3535 -2.5324,0.7571 -0.7523,0.4037 -1.3249,1.0247 -1.7181,1.863 -0.3932,0.8382 -0.5142,1.9544 -0.3637,3.3485 l 0.5678,5.2577 c 0.0966,0.8963 0.0504,1.6316 -0.1392,2.2062 -0.1899,0.5746 -0.733,0.9102 -1.6294,1.0072 l -0.2987,0.032 0.0745,0.6871 2.7182,-0.2936 c 0.6973,-0.0752 1.2291,-0.2333 1.5962,-0.4746 0.3668,-0.2409 0.6012,-0.6338 0.7035,-1.1792 0.1023,-0.5448 0.0998,-1.3153 -0.008,-2.3111 l -0.5678,-5.2577 c -0.1097,-1.0156 -0.0516,-1.8328 0.1735,-2.4514 0.2253,-0.6188 0.5581,-1.0828 0.9981,-1.3923 0.4402,-0.3096 0.9289,-0.493 1.4666,-0.5511 0.4184,-0.0454 0.8158,-0.0026 1.1925,0.1278 0.3768,0.1307 0.7285,0.309 1.0554,0.5361 0.3265,0.2265 0.6134,0.4575 0.8603,0.6928 l 1.2229,11.3218 2.9874,-0.3226 -1.5163,-14.0405 -1.7625,0.1905 -0.9134,1.3376 -0.1496,0.0162 c -0.419,-0.3376 -0.9695,-0.6307 -1.6512,-0.8793 -0.6815,-0.2489 -1.4706,-0.3249 -2.3667,-0.2282 z m -11.1512,1.1911 c -1.1321,0.1477 -2.0038,0.5896 -2.6149,1.3255 -0.6112,0.7364 -0.8275,1.7895 -0.6489,3.1603 l 1.1843,9.0876 -1.9964,0.2602 0.1593,1.2215 1.9962,-0.2599 0.3495,2.6815 1.7226,1.5934 1.5196,-0.1979 -0.5822,-4.4694 3.486,-0.4544 -0.1593,-1.2214 -3.486,0.4541 -1.188,-9.1173 c -0.1242,-0.9536 -0.051,-1.6699 0.2197,-2.1496 0.2707,-0.4799 0.7242,-0.7611 1.3598,-0.8438 0.5164,-0.0675 0.9626,-0.055 1.3382,0.0374 0.3756,0.0927 0.7126,0.2001 1.0117,0.3231 l 0.2423,-0.6984 c -0.3741,-0.2342 -0.8665,-0.4476 -1.4774,-0.6409 -0.6111,-0.1931 -1.423,-0.2234 -2.4361,-0.0916 z m -15.9613,2.3831 1.3473,10.3391 c 0.1165,0.894 0.0862,1.6302 -0.091,2.2085 -0.1771,0.5788 -0.7126,0.9263 -1.6067,1.0428 l -0.2979,0.0389 0.0896,0.6854 2.5325,-0.3303 c 0.735,-0.0958 1.2824,-0.2729 1.6426,-0.532 0.36,-0.2591 0.6013,-0.6188 0.7232,-1.0792 0.3815,0.2937 0.9187,0.5772 1.6106,0.8507 0.6922,0.2735 1.4655,0.3543 2.3196,0.2432 0.3376,-0.0439 0.6749,-0.1284 1.0123,-0.2534 0.337,-0.1244 0.6049,-0.2806 0.8024,-0.4677 0.235,-0.2126 0.4159,-0.4533 0.5423,-0.7223 0.1267,-0.269 0.2353,-0.5207 0.3257,-0.7546 l -1.4091,-0.8164 c -0.1794,0.3266 -0.4567,0.605 -0.8305,0.8354 -0.3739,0.2308 -0.8193,0.3796 -1.3357,0.447 -0.6157,0.0803 -1.1781,0.0273 -1.6872,-0.159 -0.5091,-0.1862 -0.9386,-0.4583 -1.2884,-0.8169 -0.003,-0.1814 -0.0178,-0.3714 -0.0439,-0.5701 -0.0258,-0.1984 -0.0465,-0.3577 -0.0621,-0.4765 l -1.3161,-10.1007 z m -9.0516,1.0332 c -1.2081,0.1829 -2.1727,0.4351 -2.8939,0.7572 -0.7211,0.322 -1.2515,0.701 -1.5902,1.1372 -0.2996,0.4303 -0.4402,0.9077 -0.4218,1.4315 0.0187,0.5239 0.085,1.1622 0.199,1.9148 l 0.7129,-0.108 c 0.0116,-0.9944 0.2996,-1.8334 0.8651,-2.5166 0.565,-0.6831 1.4715,-1.1191 2.7193,-1.3082 1.129,-0.1709 1.9709,-0.0958 2.526,0.2254 0.5553,0.3211 0.8776,0.7787 0.9677,1.3731 0.0899,0.5941 -0.0638,1.1188 -0.4609,1.5741 -0.3969,0.4549 -1.004,0.9269 -1.8215,1.4153 l -1.6107,1.0035 c -1.0602,0.6264 -1.8641,1.3053 -2.4117,2.0369 -0.5477,0.7308 -0.7481,1.5818 -0.6012,2.5524 0.1919,1.2676 0.8234,2.1597 1.8944,2.6761 1.0709,0.5165 2.3394,0.6639 3.8049,0.442 1.1486,-0.1741 2.0837,-0.4218 2.8046,-0.7438 0.7214,-0.3218 1.2416,-0.6996 1.5608,-1.1328 0.3194,-0.4331 0.4697,-0.9119 0.4512,-1.4357 -0.0187,-0.5241 -0.0847,-1.1622 -0.1987,-1.9151 l -0.7129,0.108 c -0.0116,0.9947 -0.2999,1.8334 -0.8651,2.5166 -0.565,0.6834 -1.4417,1.1149 -2.6303,1.2949 -0.9505,0.144 -1.6934,0.0538 -2.2289,-0.2702 -0.5352,-0.3243 -0.8481,-0.7835 -0.938,-1.3776 -0.0779,-0.5151 0.0562,-1.0012 0.4023,-1.459 0.3461,-0.4575 0.8515,-0.8989 1.5165,-1.3235 l 1.6702,-1.0128 c 1.2263,-0.7325 2.1246,-1.4562 2.6949,-2.1705 0.5706,-0.7146 0.7781,-1.5866 0.6219,-2.6164 -0.1919,-1.2676 -0.8529,-2.1555 -1.9834,-2.6629 -1.1302,-0.5076 -2.4778,-0.6429 -4.0425,-0.4059 z m -20.5977,3.6423 1.764,10.2761 c 0.1528,0.8884 0.152,1.6254 -10e-4,2.2105 -0.1536,0.5853 -0.6746,0.9541 -1.563,1.1066 l -0.5034,0.0865 0.1168,0.6811 2.7246,-0.4677 c 0.7305,-0.1253 1.2711,-0.3197 1.6223,-0.5833 0.3512,-0.2637 0.5834,-0.5982 0.6967,-1.0035 0.4522,0.2676 1.046,0.5009 1.7816,0.7001 0.7353,0.199 1.5869,0.2155 2.554,0.0494 0.9479,-0.1627 1.7844,-0.4692 2.5101,-0.9187 0.7254,-0.4499 1.2592,-1.1004 1.601,-1.9517 0.3416,-0.8512 0.3921,-1.9777 0.1514,-3.3795 l -1.5202,-8.8548 -2.9614,0.5085 1.52,8.8546 c 0.1697,0.987 0.1561,1.7972 -0.04,2.4304 -0.1962,0.6333 -0.5088,1.1191 -0.9389,1.457 -0.4297,0.3382 -0.9209,0.5545 -1.4737,0.6494 -0.5924,0.1018 -1.154,0.0559 -1.6852,-0.1374 -0.5312,-0.1936 -0.9952,-0.4391 -1.3918,-0.7368 l -1.9723,-11.4905 -2.9912,0.5137 z m -10.4961,1.5797 c -1.396,0.2704 -2.5282,0.8257 -3.3959,1.6671 -0.8674,0.8413 -1.4553,1.8629 -1.7634,3.0651 -0.3081,1.2021 -0.3348,2.4621 -0.0797,3.7797 0.2588,1.3374 0.7546,2.5016 1.4871,3.492 0.7319,0.9907 1.6577,1.7144 2.7765,2.1713 1.1186,0.4567 2.3763,0.5502 3.7726,0.2801 1.3964,-0.2704 2.5283,-0.826 3.3957,-1.6674 0.8677,-0.8413 1.4567,-1.8578 1.7665,-3.0503 0.3098,-1.1923 0.3356,-2.4571 0.0768,-3.7945 -0.2551,-1.3175 -0.7497,-2.4766 -1.4839,-3.4772 -0.7345,-1.0004 -1.6611,-1.7292 -2.7797,-2.1858 -1.1185,-0.457 -2.3762,-0.5502 -3.7726,-0.2801 z m 0.2342,1.2095 c 0.7276,-0.1408 1.4091,0.0077 2.0449,0.4459 0.6355,0.4383 1.1837,1.082 1.6438,1.9316 0.46,0.8492 0.7988,1.8348 1.0156,2.9554 0.2209,1.1409 0.2753,2.1863 0.163,3.1362 -0.1117,0.9502 -0.3809,1.7467 -0.8076,2.3905 -0.426,0.6434 -1.0031,1.0355 -1.7308,1.1766 -0.7276,0.1406 -1.4094,-0.008 -2.0449,-0.4459 -0.6358,-0.4382 -1.1826,-1.0771 -1.641,-1.9167 -0.4583,-0.8397 -0.7979,-1.8298 -1.0188,-2.9705 -0.2168,-1.1211 -0.2701,-2.1614 -0.1601,-3.1212 0.11,-0.9598 0.3784,-1.7614 0.8047,-2.4052 0.4264,-0.6435 1.0035,-1.0358 1.7312,-1.1767 z m -17.3994,1.876 c -1.9,0.4079 -3.4495,1.2064 -4.6488,2.3961 -1.1993,1.1897 -2.0092,2.6184 -2.4299,4.2863 -0.4203,1.6676 -0.4311,3.4319 -0.0317,5.2926 0.3155,1.4689 0.8456,2.7944 1.5911,3.9761 0.7455,1.1821 1.6472,2.1615 2.7048,2.9384 1.0582,0.7767 2.209,1.3184 3.4529,1.6251 1.2438,0.3067 2.5024,0.3235 3.7752,0.0502 1.6846,-0.3614 3.0591,-0.9023 4.1235,-1.6225 1.0644,-0.7203 1.7935,-1.4503 2.1881,-2.1907 0.2713,-0.5499 0.3501,-1.2325 0.2364,-2.048 -0.1137,-0.8158 -0.2648,-1.6642 -0.4538,-2.5458 l -0.6466,0.1389 c 0.0315,1.9602 -0.3583,3.5085 -1.1696,4.6457 -0.811,1.137 -2.0293,1.8797 -3.655,2.2289 -1.2535,0.269 -2.4661,0.227 -3.638,-0.1259 -1.1718,-0.3529 -2.2121,-1.1435 -3.1212,-2.3726 -0.9093,-1.2285 -1.618,-3.0279 -2.1265,-5.3977 -0.2356,-1.097 -0.3385,-2.1966 -0.3087,-3.299 0.0297,-1.1024 0.2344,-2.1299 0.6137,-3.0821 0.3798,-0.9521 0.9467,-1.7705 1.7013,-2.4548 0.7546,-0.6843 1.7487,-1.1591 2.9826,-1.4238 1.4494,-0.3113 2.7893,-0.2248 4.0201,0.2591 1.2305,0.4836 2.3902,1.305 3.4793,2.4644 l 0.5916,-0.68 c -1.3227,-1.5806 -2.7318,-2.5844 -4.2268,-3.0113 -1.495,-0.4269 -3.1632,-0.4427 -5.004,-0.0476 z m -31.0904,1.4706 0.2138,0.9066 c 0.9161,-0.216 1.7433,-0.2002 2.4808,0.0476 0.7379,0.2477 1.4831,0.9209 2.2363,2.0194 l 0.9643,1.4703 -2.1279,12.5731 c -0.1177,0.8098 -0.4011,1.4632 -0.8499,1.9601 -0.4487,0.4969 -1.0148,0.8674 -1.6982,1.1109 l 0.1378,0.5848 2.5152,-0.5933 c 0.8773,-0.2069 1.5698,-0.5865 2.0777,-1.1386 0.508,-0.552 0.8303,-1.2351 0.9675,-2.0495 l 1.4712,-8.6825 6.0012,9.0808 1.4913,-0.3518 -9.4518,-14.2869 c -0.6429,-0.9802 -1.2552,-1.7002 -1.8371,-2.1597 -0.582,-0.4598 -1.1659,-0.7336 -1.7527,-0.8215 -0.5868,-0.0882 -1.2215,-0.0516 -1.9038,0.1094 z m -5.3662,7.2477 c -1.1047,0.2894 -1.9134,0.8379 -2.4268,1.6449 -0.5131,0.8076 -0.5947,1.8799 -0.244,3.217 l 2.3224,8.8651 -1.9474,0.5105 0.3124,1.1914 1.9474,-0.5099 0.6854,2.6158 1.91,1.3632 1.4825,-0.3884 -1.1424,-4.3599 3.4007,-0.891 -0.3121,-1.1919 -3.4007,0.8912 -2.3306,-8.8943 c -0.2435,-0.9303 -0.2614,-1.6503 -0.0533,-2.1603 0.208,-0.5102 0.6222,-0.8464 1.2421,-1.0088 0.504,-0.1321 0.9479,-0.1761 1.3323,-0.1318 0.3844,0.0445 0.7325,0.1085 1.0446,0.1924 l 0.1522,-0.7234 c -0.4008,-0.1848 -0.9162,-0.3345 -1.5469,-0.4487 -0.6304,-0.1145 -1.4397,-0.0422 -2.4278,0.2169 z m -10.9979,3.192 2.6425,10.086 c 0.2284,0.8719 0.2911,1.6061 0.1887,2.2022 -0.1026,0.5964 -0.5898,1.0089 -1.4618,1.2374 l -0.4941,0.1295 0.1749,0.6687 2.8197,-0.739 c 0.678,-0.1774 1.1806,-0.4127 1.5077,-0.7055 0.3274,-0.2929 0.5012,-0.7164 0.5216,-1.2705 0.0204,-0.5539 -0.0964,-1.3156 -0.3501,-2.2842 l -2.6427,-10.0862 z m 5.3286,15.0044 c -0.523,0.1369 -0.8972,0.4473 -1.1226,0.9309 -0.2253,0.4833 -0.2695,0.9867 -0.1323,1.51 0.1117,0.4263 0.3299,0.7265 0.6551,0.9 0.3251,0.1738 0.691,0.2072 1.0981,0.1004 0.523,-0.137 0.8986,-0.4423 1.1265,-0.9162 0.2279,-0.474 0.2732,-0.9726 0.136,-1.4956 -0.1114,-0.4263 -0.3313,-0.7313 -0.6587,-0.9144 -0.3277,-0.1834 -0.6948,-0.222 -1.1021,-0.1151 z m -12.8033,-12.9487 4.3393,15.541 c 0.2424,0.8679 0.3169,1.601 0.2239,2.1991 -0.0929,0.5978 -0.5734,1.0179 -1.4417,1.2606 l -0.521,0.1454 0.186,0.6656 2.836,-0.792 c 0.6753,-0.1885 1.1742,-0.432 1.4965,-0.73 0.3225,-0.2979 0.4892,-0.7239 0.5008,-1.2784 0.0119,-0.5544 -0.117,-1.3138 -0.3866,-2.2788 l -4.3393,-15.5409 z m -10.7886,2.7003 c -0.521,0.1457 -1.0123,0.3606 -1.4735,0.6455 -0.4612,0.2846 -0.8643,0.6468 -1.2095,1.0865 -0.3453,0.4396 -0.5817,0.9527 -0.709,1.5395 -0.1273,0.5865 -0.0887,1.2464 0.116,1.9797 0.2857,1.0225 0.8254,1.7453 1.6194,2.1685 0.794,0.4226 1.7918,0.6069 2.9931,0.5522 1.2013,-0.0547 2.5449,-0.2891 4.0306,-0.7041 l 0.7526,-0.2101 c 0.3662,1.3119 0.521,2.3502 0.464,3.1147 -0.057,0.7648 -0.2693,1.3439 -0.6378,1.7382 -0.3682,0.3938 -0.8419,0.6716 -1.4204,0.8334 -0.7719,0.2152 -1.4766,0.2248 -2.1135,0.0286 -0.6373,-0.1967 -1.1997,-0.7571 -1.6864,-1.6817 l -1.3889,0.3877 c 0.14,0.5015 0.3035,0.976 0.4906,1.4227 0.1871,0.4471 0.5151,0.8025 0.9842,1.0667 0.4689,0.2642 1.135,0.3592 1.9982,0.2843 0.8631,-0.0745 1.7382,-0.2358 2.6257,-0.4836 0.733,-0.2046 1.3924,-0.4875 1.978,-0.8487 0.5854,-0.3611 1.0588,-0.826 1.4199,-1.3946 0.3611,-0.5689 0.5712,-1.2878 0.6301,-2.1572 0.0587,-0.8691 -0.0842,-1.9207 -0.4289,-3.1555 l -2.1818,-7.814 -1.7076,0.4765 -0.6491,1.5852 -0.1449,0.0408 c -0.3971,-0.3053 -0.9612,-0.5378 -1.6922,-0.6976 -0.7308,-0.1599 -1.6172,-0.0944 -2.6589,0.1964 z m 1.5582,0.9998 c 0.6945,-0.1936 1.3016,-0.1604 1.8215,0.1001 0.5199,0.2602 0.9672,0.5774 1.3419,0.951 l 1.0667,3.82 -0.7523,0.2103 c -1.4278,0.3985 -2.5954,0.4439 -3.5031,0.1358 -0.9076,-0.3082 -1.4879,-0.9156 -1.741,-1.8224 -0.2534,-0.9068 -0.1911,-1.6523 0.1868,-2.236 0.3776,-0.5837 0.9043,-0.97 1.5795,-1.1588 z m -15.5098,3.2352 c -0.9003,0.2744 -1.6824,0.6803 -2.3457,1.2175 -0.6636,0.5374 -1.1097,1.2546 -1.3391,2.1515 -0.2293,0.8971 -0.1394,2.016 0.2693,3.3576 l 1.5418,5.0587 c 0.2628,0.862 0.3549,1.5934 0.2758,2.1932 -0.0791,0.5998 -0.5493,1.0312 -1.4116,1.294 l -0.2878,0.0876 0.2016,0.6613 2.6155,-0.7971 c 0.6707,-0.2047 1.1636,-0.4595 1.4788,-0.7651 0.3155,-0.3056 0.4723,-0.7353 0.4709,-1.29 -10e-4,-0.5545 -0.1483,-1.3108 -0.4402,-2.2689 l -1.5418,-5.0584 c -0.2976,-0.9771 -0.394,-1.7909 -0.2883,-2.4409 0.1057,-0.65 0.3456,-1.1682 0.7197,-1.5545 0.3745,-0.3864 0.8204,-0.6582 1.3377,-0.8158 0.4025,-0.1228 0.8008,-0.1554 1.1957,-0.0976 0.3943,0.0579 0.7732,0.1676 1.1366,0.3291 0.3634,0.1613 0.6883,0.3345 0.9749,0.5196 l 3.3202,10.8933 2.8741,-0.8762 -4.1171,-13.5088 -1.6957,0.5168 -0.6468,1.485 -0.1438,0.044 c -0.475,-0.2532 -1.0706,-0.438 -1.7869,-0.555 -0.716,-0.1168 -1.5052,-0.0437 -2.3678,0.2191 z m -9.9485,-3.0016 c -1.4102,0.4569 -2.7453,1.0794 -4.0062,1.8672 -1.2608,0.7874 -2.4001,1.8045 -3.4177,3.0503 -1.0176,1.2458 -1.8822,2.7842 -2.5943,4.6154 -1.1721,0.8013 -2.0849,1.8184 -2.7382,3.0512 -0.6531,1.2331 -1.0194,2.5889 -1.0979,4.0674 -0.0788,1.4786 0.1318,2.9894 0.6321,4.5329 0.6055,1.8675 1.5205,3.4399 2.7451,4.7169 1.2248,1.2773 2.6572,2.1396 4.297,2.5869 1.6404,0.4476 3.3752,0.375 5.2047,-0.218 1.8289,-0.593 3.2721,-1.5503 4.328,-2.8718 1.0562,-1.3215 1.7104,-2.8602 1.9627,-4.6159 0.252,-1.7558 0.0754,-3.5674 -0.5298,-5.4349 -0.5128,-1.5817 -1.2507,-2.9483 -2.2133,-4.0998 -0.9629,-1.1511 -2.0801,-2.0315 -3.3514,-2.6407 -1.2714,-0.6092 -2.6518,-0.8725 -4.1411,-0.7897 0.0192,-0.7852 0.176,-1.5682 0.4708,-2.348 0.2948,-0.7798 0.6885,-1.4972 1.1818,-2.1518 0.4932,-0.6548 1.0428,-1.2172 1.6483,-1.6871 0.6058,-0.4703 1.2135,-0.8042 1.8232,-1.0018 z m -7.0812,9.4337 c 1.2387,-0.4014 2.4072,-0.3855 3.5059,0.0482 1.0987,0.4334 2.0942,1.2319 2.9877,2.3955 0.8929,1.1634 1.6359,2.6601 2.2289,4.4892 0.593,1.8292 0.8691,3.4773 0.8283,4.9431 -0.0408,1.4666 -0.3787,2.6972 -1.014,3.693 -0.6352,0.9955 -1.5724,1.694 -2.8111,2.0953 -1.2195,0.3955 -2.3834,0.3779 -3.4914,-0.0524 -1.1084,-0.4306 -2.109,-1.2274 -3.0019,-2.391 -0.8932,-1.1636 -1.6362,-2.66 -2.2289,-4.489 -0.5933,-1.8294 -0.8694,-3.4772 -0.8286,-4.9436 0.0406,-1.4661 0.3833,-2.6986 1.0284,-3.6972 0.6449,-0.9987 1.5772,-1.6957 2.7967,-2.0911 z m -26.5652,8.818 3.6754,9.7574 c 0.3178,0.8436 0.4567,1.5673 0.4164,2.1708 -0.0402,0.6038 -0.4818,1.0647 -1.3254,1.3824 l -0.2812,0.106 0.2435,0.6466 2.3901,-0.9 c 0.6937,-0.2613 1.1861,-0.5592 1.4777,-0.894 0.2912,-0.3345 0.4437,-0.7396 0.457,-1.2155 0.4388,0.1987 1.0261,0.3521 1.7626,0.4598 0.7364,0.108 1.5074,0.0102 2.3136,-0.2937 0.3186,-0.1196 0.6279,-0.2789 0.9278,-0.4776 0.2996,-0.1987 0.5244,-0.4116 0.6741,-0.6393 0.1802,-0.2607 0.3013,-0.5363 0.3628,-0.8271 0.0618,-0.2908 0.11,-0.5604 0.1448,-0.809 l -1.5584,-0.4725 c -0.1004,0.3588 -0.3065,0.693 -0.6177,1.0031 -0.3113,0.3099 -0.7109,0.5568 -1.1982,0.7404 -0.5811,0.2189 -1.1407,0.296 -1.6787,0.2311 -0.5383,-0.0649 -1.0188,-0.2319 -1.4411,-0.5009 -0.0445,-0.1758 -0.1026,-0.3575 -0.1732,-0.5448 -0.0706,-0.1874 -0.127,-0.3376 -0.1692,-0.4499 l -3.5907,-9.5323 z m -9.879,3.452 c -1.3209,0.5278 -2.3281,1.2864 -3.0223,2.2757 -0.6939,0.9893 -1.0791,2.1033 -1.156,3.3417 -0.0765,1.2388 0.1341,2.4812 0.6325,3.7273 0.5054,1.2648 1.2109,2.3151 2.1166,3.1502 0.9054,0.8356 1.9505,1.3725 3.1351,1.6109 1.1846,0.2384 2.4375,0.0935 3.7582,-0.4343 1.3204,-0.5275 2.3278,-1.2863 3.0217,-2.2754 0.6942,-0.9892 1.0814,-2.0987 1.1619,-3.3281 0.0803,-1.2294 -0.1323,-2.4764 -0.638,-3.7412 -0.4981,-1.2464 -1.2019,-2.2918 -2.111,-3.1365 -0.9091,-0.8447 -1.9562,-1.3862 -3.1411,-1.6245 -1.1846,-0.2384 -2.4372,-0.0939 -3.7576,0.4342 z m 0.4572,1.1438 c 0.688,-0.275 1.3853,-0.2571 2.092,0.0536 0.707,0.3109 1.366,0.8402 1.9777,1.5879 0.6118,0.7481 1.1294,1.6521 1.5531,2.7122 0.4312,1.0792 0.6812,2.0954 0.7495,3.0495 0.0689,0.9542 -0.0459,1.7873 -0.3438,2.4999 -0.2977,0.7121 -0.7906,1.2056 -1.4789,1.4808 -0.6882,0.275 -1.3858,0.2571 -2.0922,-0.0535 -0.7067,-0.311 -1.364,-0.8354 -1.9721,-1.5741 -0.608,-0.7384 -1.1276,-1.6472 -1.5587,-2.7261 -0.4238,-1.0602 -0.6718,-2.0721 -0.7441,-3.0356 -0.0723,-0.9635 0.0405,-1.8012 0.3381,-2.5135 0.298,-0.7123 0.7909,-1.2061 1.4794,-1.4811 z m -18.3982,6.5066 6.3501,14.8332 c 0.3827,0.8385 0.5678,1.5605 0.5556,2.1654 -0.0122,0.6049 -0.4453,1.0802 -1.2999,1.4261 l -0.4573,0.2296 0.2614,0.6069 11.1504,-4.7982 c 0.6256,-0.269 1.0587,-0.5806 1.2988,-0.9349 0.2401,-0.354 0.3512,-0.7291 0.3336,-1.1248 -0.0175,-0.396 -0.0963,-0.7818 -0.2364,-1.1579 l -0.9419,-2.1133 -0.6194,0.2339 c 0.491,1.1407 0.5465,2.0928 0.1661,2.8562 -0.3804,0.7634 -1.1222,1.3824 -2.2263,1.8575 l -4.2506,1.8289 -3.096,-7.2705 6.1549,-2.6484 -0.4595,-1.1438 -6.2101,2.6722 -3.7134,-8.7058 z m -16.3114,6.8811 c -1.2748,0.5843 -2.2133,1.3729 -2.816,2.3656 -0.6026,0.9924 -0.8932,2.1007 -0.8719,3.325 0.0213,1.2243 0.3161,2.4554 0.8838,3.6935 0.5928,1.2929 1.3527,2.3383 2.2808,3.136 0.9275,0.7977 1.9414,1.2912 3.0421,1.4811 1.1007,0.1891 2.2153,0.0252 3.3444,-0.4924 1.22,-0.5595 2.1376,-1.2611 2.7535,-2.1053 0.6154,-0.8441 0.9369,-1.8014 0.9641,-2.8717 0.0272,-1.0701 -0.2432,-2.2244 -0.8107,-3.4626 l -0.6307,-1.2313 -8.2761,3.7944 c -0.718,-1.5658 -0.9756,-2.9571 -0.7732,-4.174 0.2021,-1.2166 0.8498,-2.0755 1.9423,-2.5764 0.9104,-0.4175 1.7535,-0.5615 2.5287,-0.4323 0.7756,0.1293 1.5546,0.4224 2.3366,0.879 l 0.3884,-0.7398 c -0.6299,-0.4606 -1.2844,-0.7943 -1.963,-1.0009 -0.6789,-0.2067 -1.3731,-0.2792 -2.0835,-0.218 -0.7101,0.0609 -1.4567,0.2713 -2.2396,0.6301 z m 0.3892,8.7795 5.4629,-2.5047 c 0.7512,1.639 1.0786,2.9653 0.9814,3.9793 -0.097,1.0142 -0.5916,1.7257 -1.4837,2.135 -0.51,0.2336 -1.0593,0.2486 -1.6486,0.0448 -0.5891,-0.2035 -1.1736,-0.6131 -1.7533,-1.2288 -0.5799,-0.6157 -1.0995,-1.4241 -1.5587,-2.4256 z m -13.3362,-2.6875 c -1.3686,0.667 -2.3581,1.5174 -2.9687,2.5503 -0.6106,1.033 -0.8909,2.1611 -0.8405,3.3846 0.0505,1.2234 0.3697,2.4383 0.9578,3.6448 0.5967,1.2243 1.3595,2.2289 2.2876,3.0129 0.9286,0.7846 1.9874,1.2543 3.1776,1.4097 1.19,0.1553 2.469,-0.1006 3.8376,-0.7676 0.9723,-0.474 1.7563,-0.9454 2.3527,-1.4142 0.5959,-0.4689 0.9814,-0.9579 1.1569,-1.4667 0.1751,-0.5088 0.1646,-1.0329 -0.0312,-1.5724 -0.1962,-0.5397 -0.5443,-1.3226 -1.0446,-2.349 l -0.5944,0.2897 c 0.4898,1.1874 0.5442,2.2252 0.1638,3.1127 -0.381,0.8875 -1.0576,1.5681 -2.0299,2.0423 -0.8464,0.4125 -1.6582,0.5185 -2.4355,0.3181 -0.7775,-0.2004 -1.5055,-0.6423 -2.1838,-1.3255 -0.6783,-0.6834 -1.2855,-1.5741 -1.821,-2.6725 -0.5176,-1.0624 -0.8433,-2.0735 -0.9774,-3.0333 -0.1335,-0.9601 -0.0374,-1.8148 0.2883,-2.564 0.3254,-0.7492 0.9204,-1.3345 1.7847,-1.7558 0.9542,-0.4654 1.8207,-0.6423 2.5988,-0.5315 0.7784,0.1109 1.5642,0.3853 2.357,0.8232 l 0.3972,-0.7616 c -0.6585,-0.4369 -1.3295,-0.7504 -2.0129,-0.9409 -0.6835,-0.1907 -1.3882,-0.2426 -2.115,-0.1556 -0.7265,0.0865 -1.4949,0.3274 -2.3051,0.7223 z m -15.1829,7.609 c -0.4802,0.2489 -0.917,0.5599 -1.3102,0.9329 -0.3934,0.373 -0.714,0.8099 -0.9621,1.3107 -0.248,0.5009 -0.3744,1.0517 -0.3792,1.6518 -0.005,0.6004 0.168,1.2384 0.5181,1.9142 0.4887,0.9428 1.1651,1.5401 2.0285,1.7918 0.8637,0.2517 1.8782,0.2282 3.043,-0.0709 1.1647,-0.2993 2.4318,-0.8036 3.8015,-1.5134 l 0.6937,-0.3594 c 0.6267,1.2095 0.9904,2.1943 1.091,2.9543 0.1004,0.7599 0.0111,1.3705 -0.2693,1.8314 -0.28,0.4612 -0.6868,0.8297 -1.2203,1.1064 -0.7115,0.3688 -1.3989,0.5221 -2.063,0.46 -0.6636,-0.062 -1.3286,-0.496 -1.9942,-1.3016 l -1.2807,0.6636 c 0.2395,0.4623 0.4966,0.8932 0.7713,1.2926 0.2747,0.3991 0.6684,0.68 1.1815,0.8427 0.5131,0.1627 1.1843,0.1196 2.014,-0.1298 0.8297,-0.2495 1.6535,-0.5862 2.4715,-1.0103 0.6758,-0.3503 1.2634,-0.7619 1.7629,-1.235 0.4992,-0.4731 0.8674,-1.0248 1.1049,-1.6555 0.2373,-0.6307 0.2957,-1.3773 0.1758,-2.2402 -0.1199,-0.8629 -0.4751,-1.8635 -1.065,-3.0016 l -3.7326,-7.2031 -1.5741,0.8161 -0.3116,1.684 -0.1335,0.0692 c -0.451,-0.2174 -1.0508,-0.3297 -1.7988,-0.3368 -0.7484,-0.007 -1.6027,0.2382 -2.5631,0.7359 z m 1.7297,0.6602 c 0.6403,-0.3316 1.2416,-0.4232 1.8037,-0.2744 0.5621,0.1483 1.0647,0.3674 1.508,0.6565 l 1.8249,3.5218 -0.6936,0.3591 c -1.3161,0.6821 -2.4497,0.9652 -3.401,0.849 -0.9516,-0.1159 -1.6438,-0.5921 -2.0772,-1.4281 -0.4329,-0.8356 -0.5244,-1.578 -0.2741,-2.2269 0.2505,-0.6485 0.6868,-1.1341 1.3093,-1.457 z m -11.1722,4.6905 7.8565,14.0936 c 0.4391,0.7874 0.6829,1.4825 0.7328,2.0857 0.0496,0.6029 -0.3195,1.1242 -1.107,1.563 l -0.4722,0.2634 0.3362,0.6035 2.5721,-1.4338 c 0.6123,-0.3413 1.0403,-0.6945 1.2841,-1.0599 0.2435,-0.3651 0.3062,-0.8186 0.1877,-1.3603 -0.1185,-0.5417 -0.4215,-1.2498 -0.9094,-2.1246 l -7.8562,-14.0936 z m -13.8835,7.7394 7.8565,14.0936 c 0.4391,0.7875 0.6828,1.4828 0.7327,2.0857 0.0493,0.603 -0.3194,1.1243 -1.1066,1.5631 l -0.4465,0.2488 0.3365,0.6035 6.9287,-3.8624 c 0.455,-0.2537 0.9542,-0.5721 1.4973,-0.9553 0.5434,-0.3827 1.0607,-0.8433 1.5519,-1.3811 0.4916,-0.5374 0.8839,-1.1403 1.1767,-1.8082 0.2928,-0.6675 0.4212,-1.4043 0.385,-2.2099 -0.0363,-0.8053 -0.3178,-1.6803 -0.8445,-2.6251 -0.5071,-0.91 -1.082,-1.5812 -1.7246,-2.0143 -0.6426,-0.4329 -1.3116,-0.6965 -2.0061,-0.7909 -0.6947,-0.0944 -1.3646,-0.0822 -2.0094,0.0363 -0.6449,0.1188 -1.2249,0.2815 -1.7402,0.4887 -0.5154,0.2069 -0.9216,0.3934 -1.2189,0.559 l -2.782,1.5511 -3.9356,-7.0603 z m 7.1277,6.5535 1.8635,-1.0387 c 0.3849,-0.2145 0.8371,-0.3809 1.3561,-0.4983 0.5196,-0.1176 1.0749,-0.129 1.6665,-0.0346 0.5918,0.0947 1.163,0.3382 1.7141,0.7302 0.5513,0.3923 1.0513,0.9907 1.4998,1.7955 0.4388,0.7875 0.6803,1.5185 0.7242,2.1937 0.0437,0.675 -0.0499,1.2889 -0.2806,1.842 -0.2307,0.553 -0.5258,1.0213 -0.8853,1.4051 -0.3591,0.3838 -0.7313,0.6832 -1.1162,0.8975 -0.2977,0.1661 -0.6245,0.3194 -0.9817,0.4612 -0.3566,0.1414 -0.7081,0.2514 -1.0545,0.3299 z m -24.6373,12.3596 6.095,-3.854 1.573,9.066 z"
         style="fill:#7a9640;fill-opacity:1;fill-rule:evenodd;stroke:none"
         id="path34" />
    </g>
    <g
       id="g36">
      <text
         xml:space="preserve"
         transform="matrix(1,0,0,-1,534.44,153.65)"
         style="font-variant:normal;font-weight:bold;font-size:24px;font-family:Verdana;-inkscape-font-specification:Verdana-Bold-Identity-H;writing-mode:lr-tb;fill:#000000;fill-opacity:1;fill-rule:nonzero;stroke:none"
         id="text40"><tspan
           x="0 13.104 33.431999 49.032001 67.800003"
           y="0"
           id="tspan38">INFRA</tspan></text>
    </g>
  </g>
</svg>
